# xmcd CD database file
#
# Track frame offsets:
#	150
#	5480
#	23887
#	34065
#	41495
#	65127
#	69230
#	80967
#	94767
#	133820
#	145752
#	172125
#	176200
#
# Disc length: 2484 seconds
#
# Revision: 1
# Processed by: cddbd v1.5.2PL0 Copyright (c) Steve Scherf et al.
# Submitted via: CDex 1.51
#
DISCID=bc09b20d
DTITLE=Nucleus - Elastic Rock
DYEAR=1970
DGENRE=Jazz Rock
TTITLE0=1916
TTITLE1=Elastic Rock
TTITLE2=Striation
TTITLE3=Taranaki
TTITLE4=Twisted Track
TTITLE5=Crude Blues (Part1)
TTITLE6=Crude Blues (Part2)
TTITLE7=1916-The Battle Of Boogaloo
TTITLE8=Torrid Zone
TTITLE9=Stonescape
TTITLE10=Earth Mother
TTITLE11=Speaking For Myself, Personally, In My Own Opinion, I Think...
TTITLE12=Persephones Jive
EXTD=YEAR: 1970
EXTT0=
EXTT1=
EXTT2=
EXTT3=
EXTT4=
EXTT5=
EXTT6=
EXTT7=
EXTT8=
EXTT9=
EXTT10=
EXTT11=
EXTT12=
PLAYORDER=
